<svg x="0" y="0" width="1080" height="540" viewBox="0 0 1890 945" xmlns="http://www.w3.org/2000/svg" xmlns:xlink="http://www.w3.org/1999/xlink" xmlns:fi="http://pattern.flaticon.com/"><rect x="0px" y="0px" width="100%" height="100%" opacity="1" fill="#1de9b6"/><defs><g transform="matrix(0.1171877309679985 0 0 0.1171877309679985 130 31)" id="L1_23"><path d="M372.29,50.758H28.831C12.933,50.758,0,63.691,0,79.588v206.056c0,15.897,12.933,28.831,28.831,28.831h22.271v76.71    c0,4.884,2.942,9.289,7.456,11.159c1.494,0.62,3.064,0.92,4.62,0.92c3.144,0,6.232-1.228,8.543-3.538l85.251-85.25h17.104    c6.671,0,12.078-5.407,12.078-12.078c0-6.672-5.409-12.079-12.078-12.079c0,0-22.69,0.016-22.927,0.04    c-2.812,0.191-5.572,1.349-7.722,3.498l-68.169,68.169c0,0-0.021-60.392-0.06-60.705c-0.545-6.166-5.717-11.002-12.024-11.002    H28.831c-2.578,0-4.674-2.097-4.674-4.674V79.588c0-2.578,2.097-4.674,4.674-4.674H372.29c2.578,0,4.674,2.097,4.674,4.674v79.055    c0,6.671,5.409,12.078,12.078,12.078s12.078-5.407,12.078-12.078V79.588C401.12,63.691,388.187,50.758,372.29,50.758z"/><path d="M483.169,198.492H242.754c-15.897,0-28.831,12.933-28.831,28.831v140.57c0,15.897,12.933,28.831,28.831,28.831h150.514    l60.98,60.98c2.311,2.311,5.4,3.538,8.543,3.538c1.556,0,3.126-0.301,4.62-0.92c4.512-1.87,7.456-6.273,7.456-11.159v-52.44h8.301    c15.897,0,28.831-12.933,28.831-28.831V227.322C512,211.425,499.067,198.492,483.169,198.492z M487.844,367.893    c0,2.577-2.097,4.674-4.674,4.674h-20.376c-6.356,0-11.554,4.912-12.031,11.147c-0.031,0.264-0.051,36.29-0.051,36.29    l-43.854-43.855c-0.046-0.046-0.094-0.089-0.14-0.135c-0.172-0.168-0.335-0.314-0.489-0.445c-2.126-1.864-4.903-3.003-7.951-3.003    H242.754c-2.578,0-4.674-2.097-4.674-4.674v-140.57c0-2.578,2.097-4.674,4.674-4.674h240.416c2.577,0,4.674,2.097,4.674,4.674    V367.893z"/><path d="M362.964,285.53c-6.667,0-12.078,5.411-12.078,12.078c0,6.667,5.411,12.078,12.078,12.078    c6.668,0,12.078-5.411,12.078-12.078C375.042,290.941,369.631,285.53,362.964,285.53z"/><path d="M310.472,130.611c0,0-219.822,0-219.822,0c-6.67,0-12.078,5.407-12.078,12.078s5.409,12.078,12.078,12.078h219.822    c6.67,0,12.078-5.407,12.078-12.078S317.142,130.611,310.472,130.611z"/><path d="M174.075,210.465H90.65c-6.67,0-12.078,5.407-12.078,12.078c0,6.671,5.409,12.078,12.078,12.078h83.425    c6.671,0,12.078-5.407,12.078-12.078S180.745,210.465,174.075,210.465z"/><path d="M306.837,285.53c-6.666,0-12.078,5.411-12.078,12.078c0,6.667,5.412,12.078,12.078,12.078    c6.668,0,12.078-5.411,12.078-12.078C318.915,290.941,313.505,285.53,306.837,285.53z"/><path d="M419.079,285.53c-6.667,0-12.078,5.411-12.078,12.078c0,6.667,5.411,12.078,12.078,12.078    c6.668,0,12.078-5.411,12.078-12.078C431.157,290.941,425.746,285.53,419.079,285.53z"/></g><g transform="matrix(0.1449444442987442 0 0 0.1449444442987442 242.89422607421875 102.89422607421875)" id="L1_24"><path d="M472.208,201.712c9.271-9.037,12.544-22.3,8.544-34.613c-4.001-12.313-14.445-21.118-27.257-22.979l-112.03-16.279    c-2.199-0.319-4.1-1.7-5.084-3.694L286.28,22.632c-5.729-11.61-17.331-18.822-30.278-18.822c-12.947,0-24.549,7.212-30.278,18.822    l-50.101,101.516c-0.985,1.993-2.885,3.374-5.085,3.694L58.51,144.12c-12.812,1.861-23.255,10.666-27.257,22.979    c-4.002,12.313-0.728,25.576,8.544,34.613l81.065,79.019c1.591,1.552,2.318,3.787,1.942,5.978l-19.137,111.576    c-2.188,12.761,2.958,25.414,13.432,33.024c10.474,7.612,24.102,8.595,35.56,2.572l100.201-52.679    c1.968-1.035,4.317-1.035,6.286,0l100.202,52.679c4.984,2.62,10.377,3.915,15.744,3.914c6.97,0,13.896-2.184,19.813-6.487    c10.474-7.611,15.621-20.265,13.432-33.024l-19.137-111.576c-0.375-2.191,0.351-4.426,1.942-5.978L472.208,201.712z     M362.579,291.276l19.137,111.578c0.64,3.734-1.665,5.863-2.686,6.604c-1.022,0.74-3.76,2.277-7.112,0.513l-100.202-52.679    c-4.919-2.585-10.315-3.879-15.712-3.879c-5.397,0-10.794,1.294-15.712,3.878l-100.201,52.678    c-3.354,1.763-6.091,0.228-7.112-0.513c-1.021-0.741-3.327-2.87-2.686-6.604l19.137-111.576    c1.879-10.955-1.75-22.127-9.711-29.886l-81.065-79.019c-2.713-2.646-2.099-5.723-1.708-6.923    c0.389-1.201,1.702-4.052,5.451-4.596l112.027-16.279c10.999-1.598,20.504-8.502,25.424-18.471l50.101-101.516    c1.677-3.397,4.793-3.764,6.056-3.764c1.261,0,4.377,0.366,6.055,3.764v0.001l50.101,101.516    c4.919,9.969,14.423,16.873,25.422,18.471l112.029,16.279c3.749,0.544,5.061,3.395,5.451,4.596    c0.39,1.201,1.005,4.279-1.709,6.923l-81.065,79.019C364.329,269.149,360.7,280.321,362.579,291.276z"/><path d="M413.783,22.625c-6.036-4.384-14.481-3.046-18.865,2.988l-14.337,19.732c-4.384,6.034-3.047,14.481,2.988,18.865    c2.399,1.741,5.176,2.58,7.928,2.58c4.177,0,8.295-1.931,10.937-5.567l14.337-19.732    C421.155,35.456,419.818,27.009,413.783,22.625z"/><path d="M131.36,45.265l-14.337-19.732c-4.383-6.032-12.829-7.37-18.865-2.988c-6.034,4.384-7.372,12.831-2.988,18.865    l14.337,19.732c2.643,3.639,6.761,5.569,10.939,5.569c2.753,0,5.531-0.839,7.927-2.581C134.407,59.747,135.745,51.3,131.36,45.265    z"/><path d="M49.552,306.829c-2.305-7.093-9.924-10.976-17.019-8.671l-23.197,7.538c-7.095,2.305-10.976,9.926-8.671,17.019    c1.854,5.709,7.149,9.337,12.842,9.337c1.383,0,2.79-0.215,4.177-0.666l23.197-7.538    C47.975,321.543,51.857,313.924,49.552,306.829z"/><path d="M256.005,456.786c-7.459,0-13.506,6.047-13.506,13.506v24.392c0,7.459,6.047,13.506,13.506,13.506    c7.459,0,13.506-6.047,13.506-13.506v-24.392C269.511,462.832,263.465,456.786,256.005,456.786z"/><path d="M502.664,305.715l-23.197-7.538c-7.092-2.303-14.714,1.577-17.019,8.672c-2.305,7.095,1.576,14.714,8.671,17.019    l23.197,7.538c1.387,0.45,2.793,0.664,4.176,0.664c5.694,0,10.989-3.629,12.843-9.337    C513.64,315.639,509.758,308.02,502.664,305.715z"/></g><g transform="matrix(0.1171872690320015 0 0 0.1171872690320015 183 182)" id="L1_25"><path d="M457.637,134.681c-29.976,0-54.363,24.387-54.363,54.363c0,10.933,3.255,21.114,8.831,29.647l-58.733,58.733    c-8.534-5.576-18.715-8.831-29.648-8.831c-11.329,0-21.858,3.488-30.576,9.441l-59.338-59.347    c5.575-8.533,8.828-18.713,8.828-29.644c0-29.976-24.387-54.363-54.363-54.363c-29.976,0-54.363,24.387-54.363,54.363    c0,10.931,3.254,21.108,8.827,29.641L84.004,277.42c-8.532-5.574-18.711-8.827-29.641-8.827C24.387,268.593,0,292.981,0,322.957    s24.387,54.363,54.363,54.363c29.976,0,54.363-24.387,54.363-54.363c0-10.933-3.255-21.114-8.831-29.648l58.733-58.733    c8.534,5.576,18.715,8.831,29.648,8.831c10.932,0,21.113-3.255,29.646-8.831l59.666,59.674    c-5.206,8.338-8.226,18.174-8.226,28.706c0,29.976,24.387,54.363,54.363,54.363s54.363-24.387,54.363-54.363    c0-10.931-3.254-21.109-8.827-29.641l58.736-58.736c8.533,5.574,18.712,8.827,29.641,8.827c29.976,0,54.363-24.387,54.363-54.363    C512.001,159.066,487.613,134.681,457.637,134.681z M54.363,354.849c-17.586,0-31.893-14.307-31.893-31.892    c0-17.586,14.307-31.893,31.893-31.893c17.585,0,31.893,14.307,31.893,31.893C86.256,340.542,71.949,354.849,54.363,354.849z     M188.276,220.936c-17.585,0-31.893-14.307-31.893-31.893c0-17.585,14.307-31.893,31.893-31.893    c17.586,0,31.893,14.307,31.893,31.893C220.169,206.629,205.862,220.936,188.276,220.936z M323.724,354.849    c-17.585,0-31.893-14.307-31.893-31.893s14.307-31.893,31.893-31.893c17.585,0,31.893,14.307,31.893,31.893    C355.616,340.542,341.309,354.849,323.724,354.849z M457.637,220.936c-17.585,0-31.893-14.307-31.893-31.893    c0-17.585,14.307-31.893,31.893-31.893c17.585,0,31.893,14.307,31.893,31.893C489.53,206.629,475.222,220.936,457.637,220.936z"/><path d="M176.774,272.717c-4.388-4.387-11.501-4.387-15.889,0l-22.854,22.854c-4.387,4.387-4.387,11.501,0.001,15.889    c2.194,2.194,5.069,3.291,7.944,3.291s5.751-1.098,7.944-3.291l22.854-22.854C181.163,284.219,181.163,277.104,176.774,272.717z"/><path d="M373.962,200.939c-4.388-4.387-11.5-4.387-15.89,0.001l-22.854,22.854c-4.387,4.387-4.387,11.501,0,15.889    c2.195,2.193,5.07,3.29,7.945,3.29c2.876,0,5.75-1.098,7.944-3.291l22.854-22.854C378.349,212.44,378.349,205.326,373.962,200.939    z"/></g><g transform="matrix(0.16740982234477997 0 0 0.16740982234477997 -5.856914520263672 217.14308166503906)" id="L1_26"><path d="M499.904,456.607H12.096C5.415,456.607,0,462.022,0,468.703c0,6.679,5.415,12.096,12.096,12.096h487.808    c6.679,0,12.096-5.417,12.096-12.096C512,462.023,506.585,456.607,499.904,456.607z"/><path d="M468.37,88.305h-84.948c-6.679,0-12.096,5.417-12.096,12.096v82.24h-60.757V43.297c0-6.679-5.417-12.096-12.096-12.096    h-84.95c-6.679,0-12.096,5.417-12.096,12.096v228.882h-60.757V169.36c0-6.681-5.417-12.096-12.096-12.096H43.626    c-6.681,0-12.096,5.415-12.096,12.096v231.563c0,6.681,5.417,12.096,12.096,12.096h84.948h84.948h84.95h84.949h84.948    c6.681,0,12.096-5.417,12.096-12.096V100.401C480.466,93.722,475.051,88.305,468.37,88.305z M116.479,388.827H55.722V181.456    h60.757V388.827z M201.429,388.827h-60.757v-92.456h60.757V388.827z M286.378,194.737v194.09H225.62V55.393h60.758V194.737z     M371.328,388.827h-60.757V206.833h60.757V388.827z M456.276,388.827H395.52v-194.09v-82.24h60.757V388.827z"/></g><g transform="matrix(0.055724844336509705 0 0 0.055724844336509705 239.73443603515625 314.73443603515625)" id="L1_27"><path d="M472.208,201.712c9.271-9.037,12.544-22.3,8.544-34.613c-4.001-12.313-14.445-21.118-27.257-22.979l-112.03-16.279    c-2.199-0.319-4.1-1.7-5.084-3.694L286.28,22.632c-5.729-11.61-17.331-18.822-30.278-18.822c-12.947,0-24.549,7.212-30.278,18.822    l-50.101,101.516c-0.985,1.993-2.885,3.374-5.085,3.694L58.51,144.12c-12.812,1.861-23.255,10.666-27.257,22.979    c-4.002,12.313-0.728,25.576,8.544,34.613l81.065,79.019c1.591,1.552,2.318,3.787,1.942,5.978l-19.137,111.576    c-2.188,12.761,2.958,25.414,13.432,33.024c10.474,7.612,24.102,8.595,35.56,2.572l100.201-52.679    c1.968-1.035,4.317-1.035,6.286,0l100.202,52.679c4.984,2.62,10.377,3.915,15.744,3.914c6.97,0,13.896-2.184,19.813-6.487    c10.474-7.611,15.621-20.265,13.432-33.024l-19.137-111.576c-0.375-2.191,0.351-4.426,1.942-5.978L472.208,201.712z     M362.579,291.276l19.137,111.578c0.64,3.734-1.665,5.863-2.686,6.604c-1.022,0.74-3.76,2.277-7.112,0.513l-100.202-52.679    c-4.919-2.585-10.315-3.879-15.712-3.879c-5.397,0-10.794,1.294-15.712,3.878l-100.201,52.678    c-3.354,1.763-6.091,0.228-7.112-0.513c-1.021-0.741-3.327-2.87-2.686-6.604l19.137-111.576    c1.879-10.955-1.75-22.127-9.711-29.886l-81.065-79.019c-2.713-2.646-2.099-5.723-1.708-6.923    c0.389-1.201,1.702-4.052,5.451-4.596l112.027-16.279c10.999-1.598,20.504-8.502,25.424-18.471l50.101-101.516    c1.677-3.397,4.793-3.764,6.056-3.764c1.261,0,4.377,0.366,6.055,3.764v0.001l50.101,101.516    c4.919,9.969,14.423,16.873,25.422,18.471l112.029,16.279c3.749,0.544,5.061,3.395,5.451,4.596    c0.39,1.201,1.005,4.279-1.709,6.923l-81.065,79.019C364.329,269.149,360.7,280.321,362.579,291.276z"/><path d="M413.783,22.625c-6.036-4.384-14.481-3.046-18.865,2.988l-14.337,19.732c-4.384,6.034-3.047,14.481,2.988,18.865    c2.399,1.741,5.176,2.58,7.928,2.58c4.177,0,8.295-1.931,10.937-5.567l14.337-19.732    C421.155,35.456,419.818,27.009,413.783,22.625z"/><path d="M131.36,45.265l-14.337-19.732c-4.383-6.032-12.829-7.37-18.865-2.988c-6.034,4.384-7.372,12.831-2.988,18.865    l14.337,19.732c2.643,3.639,6.761,5.569,10.939,5.569c2.753,0,5.531-0.839,7.927-2.581C134.407,59.747,135.745,51.3,131.36,45.265    z"/><path d="M49.552,306.829c-2.305-7.093-9.924-10.976-17.019-8.671l-23.197,7.538c-7.095,2.305-10.976,9.926-8.671,17.019    c1.854,5.709,7.149,9.337,12.842,9.337c1.383,0,2.79-0.215,4.177-0.666l23.197-7.538    C47.975,321.543,51.857,313.924,49.552,306.829z"/><path d="M256.005,456.786c-7.459,0-13.506,6.047-13.506,13.506v24.392c0,7.459,6.047,13.506,13.506,13.506    c7.459,0,13.506-6.047,13.506-13.506v-24.392C269.511,462.832,263.465,456.786,256.005,456.786z"/><path d="M502.664,305.715l-23.197-7.538c-7.092-2.303-14.714,1.577-17.019,8.672c-2.305,7.095,1.576,14.714,8.671,17.019    l23.197,7.538c1.387,0.45,2.793,0.664,4.176,0.664c5.694,0,10.989-3.629,12.843-9.337    C513.64,315.639,509.758,308.02,502.664,305.715z"/></g><g transform="matrix(-0.1171875 0 0 0.1171875 374 1.9999998807907104)" id="L1_28"><path d="M510.576,264.536l-58.431-157.94c-2.122-5.739-6.353-10.307-11.913-12.863c-5.559-2.556-11.78-2.796-17.519-0.672    L137.796,198.467c-5.739,2.123-10.307,6.354-12.864,11.912c-2.556,5.559-2.795,11.781-0.672,17.519l58.431,157.94    c2.122,5.739,6.353,10.307,11.913,12.864c3.05,1.403,6.299,2.107,9.559,2.107c2.682,0,5.37-0.476,7.961-1.435l284.918-105.406    h0.001C508.886,289.585,514.958,276.382,510.576,264.536z M407.052,123.279l-88.377,126.344l-149.327-38.405L407.052,123.279z     M200.044,366.731l-50.683-137l117.382,30.192L200.044,366.731z M224.863,370.237l65.152-104.33l30.642,7.882    c0.951,0.241,1.913,0.367,2.852,0.367c3.688,0,7.216-1.787,9.392-4.891l18.133-25.944l117.369,36.818L224.863,370.237z     M364.814,223.638l69.463-99.324l50.703,137.019L364.814,223.638z" fill="#000000"/><path d="M133.44,388.976c-2.194-5.933-8.786-8.961-14.715-6.768l-43.162,15.968c-5.933,2.196-8.962,8.784-6.768,14.716    c1.71,4.623,6.086,7.482,10.743,7.482c1.319,0,2.663-0.23,3.973-0.715l43.16-15.968    C132.606,401.498,135.635,394.909,133.44,388.976z" fill="#000000"/><path d="M75.023,282.646c-2.196-5.933-8.785-8.96-14.716-6.768l-26.643,9.857c-5.933,2.196-8.962,8.783-6.768,14.716    c1.71,4.622,6.087,7.482,10.743,7.482c1.319,0,2.663-0.23,3.973-0.715l26.643-9.857C74.188,295.168,77.218,288.579,75.023,282.646    z" fill="#000000"/><path d="M41.995,369.408c-2.196-5.933-8.785-8.962-14.716-6.768l-19.797,7.324c-5.933,2.196-8.962,8.784-6.768,14.716    c1.71,4.622,6.086,7.482,10.743,7.482c1.319,0,2.663-0.23,3.973-0.715l19.797-7.324C41.161,381.929,44.19,375.341,41.995,369.408z    " fill="#000000"/></g><g transform="matrix(0.1171877309679985 0 0 0.1171877309679985 52 93)" id="L1_29"><path d="M466.45,49.374c-7.065-8.308-17.368-13.071-28.267-13.071H402.41v-11.19C402.41,11.266,391.143,0,377.297,0H134.705    c-13.848,0-25.112,11.266-25.112,25.112v11.19H73.816c-10.899,0-21.203,4.764-28.267,13.071    c-6.992,8.221-10.014,19.019-8.289,29.624c9.4,57.8,45.775,108.863,97.4,136.872c4.717,11.341,10.059,22.083,16.008,32.091    c19.002,31.975,42.625,54.073,68.627,64.76c2.635,26.644-15.094,51.885-41.794,57.9c-0.057,0.013-0.097,0.033-0.153,0.046    c-5.211,1.245-9.09,5.921-9.09,11.513v54.363h-21.986c-19.602,0-35.549,15.947-35.549,35.549v28.058    c0,6.545,5.305,11.85,11.85,11.85H390.56c6.545,0,11.85-5.305,11.85-11.85v-28.058c0-19.602-15.947-35.549-35.549-35.549h-21.988    V382.18c0-5.603-3.893-10.286-9.118-11.52c-0.049-0.012-0.096-0.028-0.145-0.04c-26.902-6.055-44.664-31.55-41.752-58.394    c25.548-10.86,48.757-32.761,67.479-64.264c5.949-10.009,11.29-20.752,16.008-32.095c51.622-28.01,87.995-79.072,97.395-136.87    C476.465,68.392,473.443,57.595,466.45,49.374z M60.652,75.192c-0.616-3.787,0.431-7.504,2.949-10.466    c2.555-3.004,6.277-4.726,10.214-4.726h35.777v21.802c0,34.186,4.363,67.3,12.632,97.583    C89.728,153.706,67.354,116.403,60.652,75.192z M366.861,460.243c6.534,0,11.85,5.316,11.85,11.85v16.208H134.422v-16.208    c0-6.534,5.316-11.85,11.85-11.85H366.861z M321.173,394.03v42.513H191.96V394.03H321.173z M223.037,370.331    c2.929-3.224,5.607-6.719,8.002-10.46c7.897-12.339,12.042-26.357,12.228-40.674c4.209,0.573,8.457,0.88,12.741,0.88    c4.661,0,9.279-0.358,13.852-1.036c0.27,19.239,7.758,37.45,20.349,51.289H223.037z M378.709,81.803    c0,58.379-13.406,113.089-37.747,154.049c-23.192,39.03-53.364,60.525-84.956,60.525c-31.597,0-61.771-21.494-84.966-60.523    c-24.342-40.961-37.748-95.671-37.748-154.049V25.112c0-0.78,0.634-1.413,1.412-1.413h242.591c0.78,0,1.414,0.634,1.414,1.413    V81.803z M451.348,75.192c-6.702,41.208-29.074,78.51-61.569,104.191c8.268-30.283,12.631-63.395,12.631-97.58V60.001h35.773    c3.938,0,7.66,1.723,10.214,4.726C450.915,67.688,451.963,71.405,451.348,75.192z"/><path d="M327.941,121.658c-1.395-4.288-5.103-7.414-9.566-8.064l-35.758-5.196l-15.991-32.402    c-1.997-4.044-6.116-6.605-10.626-6.605c-4.511,0-8.63,2.561-10.626,6.605l-15.991,32.402l-35.758,5.196    c-4.464,0.648-8.172,3.775-9.566,8.065c-1.393,4.291-0.231,8.999,2.999,12.148l25.875,25.221l-6.109,35.613    c-0.763,4.446,1.064,8.938,4.714,11.59c3.648,2.651,8.487,3,12.479,0.902L256,190.32l31.982,16.813    c1.734,0.911,3.627,1.36,5.512,1.36c2.456,0,4.902-0.763,6.966-2.263c3.65-2.652,5.477-7.144,4.714-11.59l-6.109-35.613    l25.875-25.221C328.172,130.658,329.334,125.949,327.941,121.658z M278.064,146.405c-2.793,2.722-4.068,6.644-3.408,10.489    l3.102,18.09l-16.245-8.541c-1.725-0.908-3.62-1.36-5.514-1.36c-1.894,0-3.788,0.454-5.514,1.36l-16.245,8.541l3.102-18.09    c0.66-3.844-0.615-7.766-3.408-10.489l-13.141-12.81l18.162-2.64c3.859-0.56,7.196-2.985,8.922-6.482l8.123-16.458l8.122,16.458    c1.727,3.497,5.062,5.921,8.922,6.482l18.162,2.64L278.064,146.405z"/></g><g transform="matrix(0.11718818545341492 0 0 0.11718818545341492 147 273)" id="L1_30"><path d="M57.318,166.155H12.746c-6.841,0-12.386,5.545-12.386,12.386s5.545,12.386,12.386,12.386h44.571    c6.842,0,12.387-5.545,12.387-12.386S64.159,166.155,57.318,166.155z"/><path d="M499.251,166.155h-44.572c-6.84,0-12.386,5.545-12.386,12.386s5.546,12.386,12.386,12.386h44.572    c6.84,0,12.386-5.545,12.386-12.386S506.091,166.155,499.251,166.155z"/><path d="M108.347,326.191c-4.837-4.837-12.679-4.837-17.517,0l-32.42,32.42c-4.837,4.837-4.837,12.679,0,17.517    c2.419,2.419,5.589,3.628,8.758,3.628s6.34-1.209,8.758-3.628l32.421-32.42C113.184,338.872,113.184,331.029,108.347,326.191z"/><path d="M430.912,3.628c-4.838-4.837-12.678-4.837-17.517,0L381.863,35.16c-4.837,4.837-4.837,12.68,0,17.516    c2.42,2.417,5.59,3.627,8.759,3.627c3.171,0,6.339-1.21,8.758-3.628l31.531-31.531C435.748,16.307,435.748,8.464,430.912,3.628z"/><path d="M130.117,35.142L98.602,3.628c-4.837-4.835-12.68-4.835-17.517,0c-4.837,4.837-4.837,12.68,0,17.517L112.6,52.66    c2.419,2.418,5.589,3.628,8.758,3.628s6.34-1.21,8.758-3.628C134.953,47.823,134.953,39.98,130.117,35.142z"/><path d="M453.585,358.615l-32.3-32.303c-4.838-4.837-12.678-4.837-17.517,0.001c-4.837,4.837-4.837,12.68,0,17.516l32.301,32.301    c2.419,2.419,5.589,3.628,8.758,3.628c3.171,0,6.339-1.21,8.758-3.628C458.422,371.294,458.422,363.451,453.585,358.615z"/><path d="M255.999,33.636c-85.648,0-155.327,72.885-155.327,162.474c0,41.65,14.919,86.482,40.933,123    c19.979,28.045,30.538,59.249,30.538,90.24v77.875c0,13.659,11.113,24.772,24.772,24.772h118.169    c13.659,0,24.772-11.113,24.772-24.772V409.35c0-30.99,10.559-62.195,30.536-90.24c26.014-36.517,40.934-81.35,40.934-123    C411.324,106.521,341.645,33.636,255.999,33.636z M315.082,487.227H196.913v-16.201h59.085c6.841,0,12.387-5.545,12.387-12.386    s-5.546-12.386-12.387-12.386h-59.085v-16.2h118.172l0.014,57.171C315.098,487.227,315.093,487.227,315.082,487.227z     M238.629,256.141l-16.564-35.387h67.866l-16.562,35.387c-0.652,1.393-1.039,2.896-1.142,4.43l-9.605,144.711h-13.247    l-9.605-144.711C239.668,259.037,239.28,257.534,238.629,256.141z M350.215,304.738c-22.123,31.056-34.208,65.733-35.082,100.544    h-27.684l9.341-140.749l23.831-50.915c1.796-3.836,1.507-8.325-0.767-11.899c-2.273-3.573-6.215-5.738-10.451-5.738H202.592    c-4.236,0-8.177,2.165-10.451,5.738c-2.273,3.573-2.563,8.062-0.767,11.898l23.832,50.915l9.341,140.749h-27.686    c-0.874-34.812-12.958-69.488-35.082-100.544c-22.754-31.942-36.338-72.551-36.338-108.628    c0-75.93,58.567-137.702,130.555-137.702s130.555,61.772,130.555,137.702C386.553,232.188,372.969,272.797,350.215,304.738z"/></g><g transform="matrix(0.10600440949201584 0 0 0.10600440949201584 54.85734176635742 -12.137079238891602)" id="L1_31"><path d="M470.238,31.479H41.762C18.735,31.479,0,50.214,0,73.242v250.53c0,23.029,18.735,41.764,41.763,41.764h24.415v103.079    c0,4.816,2.902,9.157,7.35,11c1.473,0.61,3.019,0.906,4.553,0.906c3.099,0,6.145-1.21,8.422-3.487L198,365.535h272.236    c23.028,0,41.762-18.735,41.762-41.764V73.242C512,50.214,493.265,31.479,470.238,31.479z M470.238,341.722H193.062    c-3.08,0-5.878,1.18-7.991,3.099c-0.019,0.017-0.041,0.038-0.06,0.055c-0.145,0.133-0.293,0.263-0.431,0.404L89.99,439.869    v-86.241c0-0.414-0.021-0.781-0.063-1.105c-0.558-6.057-5.647-10.801-11.85-10.801H41.762c-9.898,0-17.95-8.053-17.95-17.951    V73.242c0-9.898,8.052-17.95,17.95-17.95h428.475c9.899,0,17.95,8.052,17.95,17.95v250.53h0    C488.187,333.669,480.135,341.722,470.238,341.722z"/><path d="M173.987,118.437h-69.399c-6.576,0-11.906,5.332-11.906,11.906c0,6.575,5.33,11.906,11.906,11.906h69.399    c6.576,0,11.906-5.332,11.906-11.906C185.893,123.768,180.562,118.437,173.987,118.437z"/><path d="M297.738,186.6H104.587c-6.576,0-11.906,5.332-11.906,11.906c0,6.575,5.33,11.906,11.906,11.906h193.151    c6.575,0,11.906-5.33,11.906-11.906C309.644,191.932,304.313,186.6,297.738,186.6z"/><path d="M407.414,118.437H243.507c-6.576,0-11.906,5.332-11.906,11.906c0,6.575,5.33,11.906,11.906,11.906h163.907    c6.575,0,11.906-5.332,11.906-11.906C419.32,123.767,413.989,118.437,407.414,118.437z"/><path d="M407.414,186.6h-43.102c-6.575,0-11.906,5.332-11.906,11.906c0,6.576,5.332,11.906,11.906,11.906h43.102    c6.575,0,11.906-5.33,11.906-11.906C419.32,191.93,413.989,186.6,407.414,186.6z"/><path d="M212.407,254.765h-107.82c-6.576,0-11.906,5.33-11.906,11.906c0,6.575,5.33,11.906,11.906,11.906h107.82    c6.576,0,11.906-5.332,11.906-11.906C224.313,260.095,218.983,254.765,212.407,254.765z"/><path d="M407.414,254.765H275.675c-6.575,0-11.906,5.33-11.906,11.906c0,6.575,5.332,11.906,11.906,11.906h131.739    c6.575,0,11.906-5.332,11.906-11.906C419.32,260.095,413.989,254.765,407.414,254.765z"/></g><g transform="matrix(0.12429297715425491 0 0 0.12429297715425491 103.18093872070312 172.18093872070312)" id="L1_32"><circle cx="110" cy="394" r="17"/><path d="M501.619,301.273c0-8.503-2.634-16.4-7.121-22.929c10.566-7.335,17.503-19.547,17.503-33.354    c0-22.378-18.206-40.585-40.583-40.585H364.723l6.758-15.152c9.88-22.156,14.916-45.692,14.968-69.951    c0,0,0.061-29.607,0.061-29.773c0-22.999-18.711-41.711-41.711-41.711c-17.096,0-32.282,10.241-38.688,26.092    c-0.282,0.699-9.989,29.296-9.989,29.296c-8.753,25.429-24.283,47.989-44.908,65.245l-49.492,41.403H173.11v-13.061    c0-13.721-11.163-24.885-24.885-24.885H24.885C11.163,171.908,0,183.071,0,196.793v242.506c0,13.721,11.163,24.885,24.885,24.885    h123.338c13.721,0,24.885-11.163,24.885-24.885v-19.48h15.621l15.509,7.497c36.688,17.734,77.618,27.108,118.367,27.108h56.72    h17.302h43.644c22.378,0,40.585-18.206,40.585-40.583c0-8.503-2.634-16.4-7.121-22.929c10.566-7.335,17.503-19.547,17.503-33.354    c0-8.503-2.634-16.4-7.121-22.929C494.683,327.294,501.619,315.081,501.619,301.273z M148.223,439.299H24.885V196.792h123.338    l0.016,242.506C148.239,439.298,148.234,439.299,148.223,439.299z M471.418,260.691h-17.706c-6.872,0-12.442,5.57-12.442,12.442    c0,6.872,5.57,12.442,12.442,12.442h7.324c8.657,0,15.7,7.042,15.7,15.7s-7.042,15.7-15.7,15.7h-17.704    c-6.872,0-12.442,5.57-12.442,12.442s5.57,12.442,12.442,12.442h7.324c8.656,0,15.7,7.042,15.7,15.7    c0,8.656-7.042,15.699-15.7,15.699h-17.704c-6.872,0-12.442,5.57-12.442,12.442s5.57,12.442,12.442,12.442h7.324    c8.657,0,15.7,7.044,15.7,15.7c-0.002,8.654-7.045,15.696-15.702,15.696h-43.644h-17.302h-56.72    c-37.021,0-74.206-8.516-107.537-24.627l-18.075-8.737c-1.688-0.816-3.54-1.241-5.415-1.241h-18.471V234.737h33.13    c2.919,0,5.745-1.026,7.983-2.899l52.957-44.302c24.1-20.16,42.244-46.521,52.471-76.232c0,0,9.9-28.823,9.958-29.019    c2.79-5.852,8.64-9.582,15.191-9.582c9.278,0,16.826,7.548,16.826,16.826c0,0.165-0.061,29.721-0.061,29.721    c-0.044,20.764-4.354,40.906-12.811,59.869l-14.493,32.502c-1.27,2.849-1.374,5.918-0.53,8.685    c0.071,0.245,2.758,8.986,11.946,8.986h125.743c8.656,0,15.699,7.042,15.699,15.7    C487.116,253.648,480.074,260.691,471.418,260.691z"/></g><g transform="matrix(0.1625298410654068 0 0 0.1625298410654068 187.39230346679688 -13.607698440551758)"><path d="M457.637,134.681c-29.976,0-54.363,24.387-54.363,54.363c0,10.933,3.255,21.114,8.831,29.647l-58.733,58.733    c-8.534-5.576-18.715-8.831-29.648-8.831c-11.329,0-21.858,3.488-30.576,9.441l-59.338-59.347    c5.575-8.533,8.828-18.713,8.828-29.644c0-29.976-24.387-54.363-54.363-54.363c-29.976,0-54.363,24.387-54.363,54.363    c0,10.931,3.254,21.108,8.827,29.641L84.004,277.42c-8.532-5.574-18.711-8.827-29.641-8.827C24.387,268.593,0,292.981,0,322.957    s24.387,54.363,54.363,54.363c29.976,0,54.363-24.387,54.363-54.363c0-10.933-3.255-21.114-8.831-29.648l58.733-58.733    c8.534,5.576,18.715,8.831,29.648,8.831c10.932,0,21.113-3.255,29.646-8.831l59.666,59.674    c-5.206,8.338-8.226,18.174-8.226,28.706c0,29.976,24.387,54.363,54.363,54.363s54.363-24.387,54.363-54.363    c0-10.931-3.254-21.109-8.827-29.641l58.736-58.736c8.533,5.574,18.712,8.827,29.641,8.827c29.976,0,54.363-24.387,54.363-54.363    C512.001,159.066,487.613,134.681,457.637,134.681z M54.363,354.849c-17.586,0-31.893-14.307-31.893-31.892    c0-17.586,14.307-31.893,31.893-31.893c17.585,0,31.893,14.307,31.893,31.893C86.256,340.542,71.949,354.849,54.363,354.849z     M188.276,220.936c-17.585,0-31.893-14.307-31.893-31.893c0-17.585,14.307-31.893,31.893-31.893    c17.586,0,31.893,14.307,31.893,31.893C220.169,206.629,205.862,220.936,188.276,220.936z M323.724,354.849    c-17.585,0-31.893-14.307-31.893-31.893s14.307-31.893,31.893-31.893c17.585,0,31.893,14.307,31.893,31.893    C355.616,340.542,341.309,354.849,323.724,354.849z M457.637,220.936c-17.585,0-31.893-14.307-31.893-31.893    c0-17.585,14.307-31.893,31.893-31.893c17.585,0,31.893,14.307,31.893,31.893C489.53,206.629,475.222,220.936,457.637,220.936z"/><path d="M176.774,272.717c-4.388-4.387-11.501-4.387-15.889,0l-22.854,22.854c-4.387,4.387-4.387,11.501,0.001,15.889    c2.194,2.194,5.069,3.291,7.944,3.291s5.751-1.098,7.944-3.291l22.854-22.854C181.163,284.219,181.163,277.104,176.774,272.717z"/><path d="M373.962,200.939c-4.388-4.387-11.5-4.387-15.89,0.001l-22.854,22.854c-4.387,4.387-4.387,11.501,0,15.889    c2.195,2.193,5.07,3.29,7.945,3.29c2.876,0,5.75-1.098,7.944-3.291l22.854-22.854C378.349,212.44,378.349,205.326,373.962,200.939    z"/></g><g transform="matrix(0.1171875 0 0 0.1171875 255 225)" id="L1_33"><path d="M449.716,239.842c-0.543-7.535-7.082-13.191-14.628-12.661c-7.536,0.543-13.204,7.092-12.662,14.628    c0.337,4.655,0.506,9.431,0.506,14.191c0,109.061-88.726,197.787-197.786,197.787C116.086,453.787,27.36,365.06,27.36,256    S116.086,58.214,225.147,58.214c43.191,0,84.21,13.668,118.62,39.525c6.041,4.538,14.615,3.321,19.154-2.718    c4.54-6.04,3.323-14.616-2.717-19.154c-39.189-29.447-85.891-45.012-135.058-45.012C101.001,30.854,0,131.855,0,256    s101.001,225.145,225.147,225.145S450.292,380.146,450.292,256C450.292,250.586,450.097,245.15,449.716,239.842z"/><path d="M496.395,61.77c-20.808-20.807-54.666-20.807-75.474,0l-197.11,197.108l-69.874-69.875    c-20.808-20.807-54.666-20.807-75.474,0c-20.808,20.808-20.808,54.666,0,75.474l120.341,120.341    c6.895,6.895,15.951,10.342,25.007,10.342c9.057,0,18.113-3.447,25.008-10.342l247.576-247.576    C517.201,116.435,517.201,82.579,496.395,61.77z M477.049,117.897L229.472,365.475c-3.12,3.12-8.2,3.12-11.32,0L97.811,245.133    c-10.141-10.141-10.141-26.64,0-36.781c5.07-5.072,11.729-7.606,18.39-7.606s13.321,2.535,18.39,7.606l71.882,71.882    c4.632,4.631,10.791,7.181,17.339,7.181c6.551,0,12.71-2.551,17.341-7.182L440.268,81.116c10.138-10.141,26.64-10.141,36.781,0    C487.189,91.257,487.189,107.756,477.049,117.897z"/></g><g transform="matrix(-0.1171875 0 0 0.1171875 184 82.99999237060547)"><path d="M510.576,264.536l-58.431-157.94c-2.122-5.739-6.353-10.307-11.913-12.863c-5.559-2.556-11.78-2.796-17.519-0.672    L137.796,198.467c-5.739,2.123-10.307,6.354-12.864,11.912c-2.556,5.559-2.795,11.781-0.672,17.519l58.431,157.94    c2.122,5.739,6.353,10.307,11.913,12.864c3.05,1.403,6.299,2.107,9.559,2.107c2.682,0,5.37-0.476,7.961-1.435l284.918-105.406    h0.001C508.886,289.585,514.958,276.382,510.576,264.536z M407.052,123.279l-88.377,126.344l-149.327-38.405L407.052,123.279z     M200.044,366.731l-50.683-137l117.382,30.192L200.044,366.731z M224.863,370.237l65.152-104.33l30.642,7.882    c0.951,0.241,1.913,0.367,2.852,0.367c3.688,0,7.216-1.787,9.392-4.891l18.133-25.944l117.369,36.818L224.863,370.237z     M364.814,223.638l69.463-99.324l50.703,137.019L364.814,223.638z" fill="#000000"/><path d="M133.44,388.976c-2.194-5.933-8.786-8.961-14.715-6.768l-43.162,15.968c-5.933,2.196-8.962,8.784-6.768,14.716    c1.71,4.623,6.086,7.482,10.743,7.482c1.319,0,2.663-0.23,3.973-0.715l43.16-15.968    C132.606,401.498,135.635,394.909,133.44,388.976z" fill="#000000"/><path d="M75.023,282.646c-2.196-5.933-8.785-8.96-14.716-6.768l-26.643,9.857c-5.933,2.196-8.962,8.783-6.768,14.716    c1.71,4.622,6.087,7.482,10.743,7.482c1.319,0,2.663-0.23,3.973-0.715l26.643-9.857C74.188,295.168,77.218,288.579,75.023,282.646    z" fill="#000000"/><path d="M41.995,369.408c-2.196-5.933-8.785-8.962-14.716-6.768l-19.797,7.324c-5.933,2.196-8.962,8.784-6.768,14.716    c1.71,4.622,6.086,7.482,10.743,7.482c1.319,0,2.663-0.23,3.973-0.715l19.797-7.324C41.161,381.929,44.19,375.341,41.995,369.408z    " fill="#000000"/></g><g transform="matrix(0.09429226815700531 0 0 0.09429226815700531 318.8540344238281 62.84990692138672)"><path d="M57.318,166.155H12.746c-6.841,0-12.386,5.545-12.386,12.386s5.545,12.386,12.386,12.386h44.571    c6.842,0,12.387-5.545,12.387-12.386S64.159,166.155,57.318,166.155z"/><path d="M499.251,166.155h-44.572c-6.84,0-12.386,5.545-12.386,12.386s5.546,12.386,12.386,12.386h44.572    c6.84,0,12.386-5.545,12.386-12.386S506.091,166.155,499.251,166.155z"/><path d="M108.347,326.191c-4.837-4.837-12.679-4.837-17.517,0l-32.42,32.42c-4.837,4.837-4.837,12.679,0,17.517    c2.419,2.419,5.589,3.628,8.758,3.628s6.34-1.209,8.758-3.628l32.421-32.42C113.184,338.872,113.184,331.029,108.347,326.191z"/><path d="M430.912,3.628c-4.838-4.837-12.678-4.837-17.517,0L381.863,35.16c-4.837,4.837-4.837,12.68,0,17.516    c2.42,2.417,5.59,3.627,8.759,3.627c3.171,0,6.339-1.21,8.758-3.628l31.531-31.531C435.748,16.307,435.748,8.464,430.912,3.628z"/><path d="M130.117,35.142L98.602,3.628c-4.837-4.835-12.68-4.835-17.517,0c-4.837,4.837-4.837,12.68,0,17.517L112.6,52.66    c2.419,2.418,5.589,3.628,8.758,3.628s6.34-1.21,8.758-3.628C134.953,47.823,134.953,39.98,130.117,35.142z"/><path d="M453.585,358.615l-32.3-32.303c-4.838-4.837-12.678-4.837-17.517,0.001c-4.837,4.837-4.837,12.68,0,17.516l32.301,32.301    c2.419,2.419,5.589,3.628,8.758,3.628c3.171,0,6.339-1.21,8.758-3.628C458.422,371.294,458.422,363.451,453.585,358.615z"/><path d="M255.999,33.636c-85.648,0-155.327,72.885-155.327,162.474c0,41.65,14.919,86.482,40.933,123    c19.979,28.045,30.538,59.249,30.538,90.24v77.875c0,13.659,11.113,24.772,24.772,24.772h118.169    c13.659,0,24.772-11.113,24.772-24.772V409.35c0-30.99,10.559-62.195,30.536-90.24c26.014-36.517,40.934-81.35,40.934-123    C411.324,106.521,341.645,33.636,255.999,33.636z M315.082,487.227H196.913v-16.201h59.085c6.841,0,12.387-5.545,12.387-12.386    s-5.546-12.386-12.387-12.386h-59.085v-16.2h118.172l0.014,57.171C315.098,487.227,315.093,487.227,315.082,487.227z     M238.629,256.141l-16.564-35.387h67.866l-16.562,35.387c-0.652,1.393-1.039,2.896-1.142,4.43l-9.605,144.711h-13.247    l-9.605-144.711C239.668,259.037,239.28,257.534,238.629,256.141z M350.215,304.738c-22.123,31.056-34.208,65.733-35.082,100.544    h-27.684l9.341-140.749l23.831-50.915c1.796-3.836,1.507-8.325-0.767-11.899c-2.273-3.573-6.215-5.738-10.451-5.738H202.592    c-4.236,0-8.177,2.165-10.451,5.738c-2.273,3.573-2.563,8.062-0.767,11.898l23.832,50.915l9.341,140.749h-27.686    c-0.874-34.812-12.958-69.488-35.082-100.544c-22.754-31.942-36.338-72.551-36.338-108.628    c0-75.93,58.567-137.702,130.555-137.702s130.555,61.772,130.555,137.702C386.553,232.188,372.969,272.797,350.215,304.738z"/></g><g transform="matrix(0.07727180421352386 0 0 0.07727180421352386 271.2184753417969 280.1985168457031)"><path d="M466.45,49.374c-7.065-8.308-17.368-13.071-28.267-13.071H402.41v-11.19C402.41,11.266,391.143,0,377.297,0H134.705    c-13.848,0-25.112,11.266-25.112,25.112v11.19H73.816c-10.899,0-21.203,4.764-28.267,13.071    c-6.992,8.221-10.014,19.019-8.289,29.624c9.4,57.8,45.775,108.863,97.4,136.872c4.717,11.341,10.059,22.083,16.008,32.091    c19.002,31.975,42.625,54.073,68.627,64.76c2.635,26.644-15.094,51.885-41.794,57.9c-0.057,0.013-0.097,0.033-0.153,0.046    c-5.211,1.245-9.09,5.921-9.09,11.513v54.363h-21.986c-19.602,0-35.549,15.947-35.549,35.549v28.058    c0,6.545,5.305,11.85,11.85,11.85H390.56c6.545,0,11.85-5.305,11.85-11.85v-28.058c0-19.602-15.947-35.549-35.549-35.549h-21.988    V382.18c0-5.603-3.893-10.286-9.118-11.52c-0.049-0.012-0.096-0.028-0.145-0.04c-26.902-6.055-44.664-31.55-41.752-58.394    c25.548-10.86,48.757-32.761,67.479-64.264c5.949-10.009,11.29-20.752,16.008-32.095c51.622-28.01,87.995-79.072,97.395-136.87    C476.465,68.392,473.443,57.595,466.45,49.374z M60.652,75.192c-0.616-3.787,0.431-7.504,2.949-10.466    c2.555-3.004,6.277-4.726,10.214-4.726h35.777v21.802c0,34.186,4.363,67.3,12.632,97.583    C89.728,153.706,67.354,116.403,60.652,75.192z M366.861,460.243c6.534,0,11.85,5.316,11.85,11.85v16.208H134.422v-16.208    c0-6.534,5.316-11.85,11.85-11.85H366.861z M321.173,394.03v42.513H191.96V394.03H321.173z M223.037,370.331    c2.929-3.224,5.607-6.719,8.002-10.46c7.897-12.339,12.042-26.357,12.228-40.674c4.209,0.573,8.457,0.88,12.741,0.88    c4.661,0,9.279-0.358,13.852-1.036c0.27,19.239,7.758,37.45,20.349,51.289H223.037z M378.709,81.803    c0,58.379-13.406,113.089-37.747,154.049c-23.192,39.03-53.364,60.525-84.956,60.525c-31.597,0-61.771-21.494-84.966-60.523    c-24.342-40.961-37.748-95.671-37.748-154.049V25.112c0-0.78,0.634-1.413,1.412-1.413h242.591c0.78,0,1.414,0.634,1.414,1.413    V81.803z M451.348,75.192c-6.702,41.208-29.074,78.51-61.569,104.191c8.268-30.283,12.631-63.395,12.631-97.58V60.001h35.773    c3.938,0,7.66,1.723,10.214,4.726C450.915,67.688,451.963,71.405,451.348,75.192z"/><path d="M327.941,121.658c-1.395-4.288-5.103-7.414-9.566-8.064l-35.758-5.196l-15.991-32.402    c-1.997-4.044-6.116-6.605-10.626-6.605c-4.511,0-8.63,2.561-10.626,6.605l-15.991,32.402l-35.758,5.196    c-4.464,0.648-8.172,3.775-9.566,8.065c-1.393,4.291-0.231,8.999,2.999,12.148l25.875,25.221l-6.109,35.613    c-0.763,4.446,1.064,8.938,4.714,11.59c3.648,2.651,8.487,3,12.479,0.902L256,190.32l31.982,16.813    c1.734,0.911,3.627,1.36,5.512,1.36c2.456,0,4.902-0.763,6.966-2.263c3.65-2.652,5.477-7.144,4.714-11.59l-6.109-35.613    l25.875-25.221C328.172,130.658,329.334,125.949,327.941,121.658z M278.064,146.405c-2.793,2.722-4.068,6.644-3.408,10.489    l3.102,18.09l-16.245-8.541c-1.725-0.908-3.62-1.36-5.514-1.36c-1.894,0-3.788,0.454-5.514,1.36l-16.245,8.541l3.102-18.09    c0.66-3.844-0.615-7.766-3.408-10.489l-13.141-12.81l18.162-2.64c3.859-0.56,7.196-2.985,8.922-6.482l8.123-16.458l8.122,16.458    c1.727,3.497,5.062,5.921,8.922,6.482l18.162,2.64L278.064,146.405z"/></g><g transform="matrix(0.10600440949201584 0 0 0.10600440949201584 312.8573303222656 143.8629150390625)"><path d="M470.238,31.479H41.762C18.735,31.479,0,50.214,0,73.242v250.53c0,23.029,18.735,41.764,41.763,41.764h24.415v103.079    c0,4.816,2.902,9.157,7.35,11c1.473,0.61,3.019,0.906,4.553,0.906c3.099,0,6.145-1.21,8.422-3.487L198,365.535h272.236    c23.028,0,41.762-18.735,41.762-41.764V73.242C512,50.214,493.265,31.479,470.238,31.479z M470.238,341.722H193.062    c-3.08,0-5.878,1.18-7.991,3.099c-0.019,0.017-0.041,0.038-0.06,0.055c-0.145,0.133-0.293,0.263-0.431,0.404L89.99,439.869    v-86.241c0-0.414-0.021-0.781-0.063-1.105c-0.558-6.057-5.647-10.801-11.85-10.801H41.762c-9.898,0-17.95-8.053-17.95-17.951    V73.242c0-9.898,8.052-17.95,17.95-17.95h428.475c9.899,0,17.95,8.052,17.95,17.95v250.53h0    C488.187,333.669,480.135,341.722,470.238,341.722z"/><path d="M173.987,118.437h-69.399c-6.576,0-11.906,5.332-11.906,11.906c0,6.575,5.33,11.906,11.906,11.906h69.399    c6.576,0,11.906-5.332,11.906-11.906C185.893,123.768,180.562,118.437,173.987,118.437z"/><path d="M297.738,186.6H104.587c-6.576,0-11.906,5.332-11.906,11.906c0,6.575,5.33,11.906,11.906,11.906h193.151    c6.575,0,11.906-5.33,11.906-11.906C309.644,191.932,304.313,186.6,297.738,186.6z"/><path d="M407.414,118.437H243.507c-6.576,0-11.906,5.332-11.906,11.906c0,6.575,5.33,11.906,11.906,11.906h163.907    c6.575,0,11.906-5.332,11.906-11.906C419.32,123.767,413.989,118.437,407.414,118.437z"/><path d="M407.414,186.6h-43.102c-6.575,0-11.906,5.332-11.906,11.906c0,6.576,5.332,11.906,11.906,11.906h43.102    c6.575,0,11.906-5.33,11.906-11.906C419.32,191.93,413.989,186.6,407.414,186.6z"/><path d="M212.407,254.765h-107.82c-6.576,0-11.906,5.33-11.906,11.906c0,6.575,5.33,11.906,11.906,11.906h107.82    c6.576,0,11.906-5.332,11.906-11.906C224.313,260.095,218.983,254.765,212.407,254.765z"/><path d="M407.414,254.765H275.675c-6.575,0-11.906,5.33-11.906,11.906c0,6.575,5.332,11.906,11.906,11.906h131.739    c6.575,0,11.906-5.332,11.906-11.906C419.32,260.095,413.989,254.765,407.414,254.765z"/></g></defs><g fi:class="KUsePattern" opacity="0.05"><pattern id="pattern_L1_23" width="350" height="350" patternUnits="userSpaceOnUse"><use xlink:href="#L1_23" x="-350" y="-350"/><use xlink:href="#L1_23" x="0" y="-350"/><use xlink:href="#L1_23" x="350" y="-350"/><use xlink:href="#L1_23" x="-350" y="0"/><use xlink:href="#L1_23" x="0" y="0"/><use xlink:href="#L1_23" x="350" y="0"/><use xlink:href="#L1_23" x="-350" y="350"/><use xlink:href="#L1_23" x="0" y="350"/><use xlink:href="#L1_23" x="350" y="350"/></pattern><rect x="0" y="0" width="100%" height="100%" fill="url(#pattern_L1_23)"/></g><g fi:class="KUsePattern" opacity="0.04"><pattern id="pattern_L1_24" width="350" height="350" patternUnits="userSpaceOnUse"><use xlink:href="#L1_24" x="-350" y="-350"/><use xlink:href="#L1_24" x="0" y="-350"/><use xlink:href="#L1_24" x="350" y="-350"/><use xlink:href="#L1_24" x="-350" y="0"/><use xlink:href="#L1_24" x="0" y="0"/><use xlink:href="#L1_24" x="350" y="0"/><use xlink:href="#L1_24" x="-350" y="350"/><use xlink:href="#L1_24" x="0" y="350"/><use xlink:href="#L1_24" x="350" y="350"/></pattern><rect x="0" y="0" width="100%" height="100%" fill="url(#pattern_L1_24)"/></g><g fi:class="KUsePattern" opacity="0.04"><pattern id="pattern_L1_25" width="350" height="350" patternUnits="userSpaceOnUse"><use xlink:href="#L1_25" x="-350" y="-350"/><use xlink:href="#L1_25" x="0" y="-350"/><use xlink:href="#L1_25" x="350" y="-350"/><use xlink:href="#L1_25" x="-350" y="0"/><use xlink:href="#L1_25" x="0" y="0"/><use xlink:href="#L1_25" x="350" y="0"/><use xlink:href="#L1_25" x="-350" y="350"/><use xlink:href="#L1_25" x="0" y="350"/><use xlink:href="#L1_25" x="350" y="350"/></pattern><rect x="0" y="0" width="100%" height="100%" fill="url(#pattern_L1_25)"/></g><g fi:class="KUsePattern" opacity="0.04"><pattern id="pattern_L1_26" width="350" height="350" patternUnits="userSpaceOnUse"><use xlink:href="#L1_26" x="-350" y="-350"/><use xlink:href="#L1_26" x="0" y="-350"/><use xlink:href="#L1_26" x="350" y="-350"/><use xlink:href="#L1_26" x="-350" y="0"/><use xlink:href="#L1_26" x="0" y="0"/><use xlink:href="#L1_26" x="350" y="0"/><use xlink:href="#L1_26" x="-350" y="350"/><use xlink:href="#L1_26" x="0" y="350"/><use xlink:href="#L1_26" x="350" y="350"/></pattern><rect x="0" y="0" width="100%" height="100%" fill="url(#pattern_L1_26)"/></g><g fi:class="KUsePattern" opacity="0.04"><pattern id="pattern_L1_27" width="350" height="350" patternUnits="userSpaceOnUse"><use xlink:href="#L1_27" x="-350" y="-350"/><use xlink:href="#L1_27" x="0" y="-350"/><use xlink:href="#L1_27" x="350" y="-350"/><use xlink:href="#L1_27" x="-350" y="0"/><use xlink:href="#L1_27" x="0" y="0"/><use xlink:href="#L1_27" x="350" y="0"/><use xlink:href="#L1_27" x="-350" y="350"/><use xlink:href="#L1_27" x="0" y="350"/><use xlink:href="#L1_27" x="350" y="350"/></pattern><rect x="0" y="0" width="100%" height="100%" fill="url(#pattern_L1_27)"/></g><g fi:class="KUsePattern" opacity="0.04"><pattern id="pattern_L1_28" width="350" height="350" patternUnits="userSpaceOnUse"><use xlink:href="#L1_28" x="-350" y="-350"/><use xlink:href="#L1_28" x="0" y="-350"/><use xlink:href="#L1_28" x="350" y="-350"/><use xlink:href="#L1_28" x="-350" y="0"/><use xlink:href="#L1_28" x="0" y="0"/><use xlink:href="#L1_28" x="350" y="0"/><use xlink:href="#L1_28" x="-350" y="350"/><use xlink:href="#L1_28" x="0" y="350"/><use xlink:href="#L1_28" x="350" y="350"/></pattern><rect x="0" y="0" width="100%" height="100%" fill="url(#pattern_L1_28)"/></g><g fi:class="KUsePattern" opacity="0.04"><pattern id="pattern_L1_29" width="350" height="350" patternUnits="userSpaceOnUse"><use xlink:href="#L1_29" x="-350" y="-350"/><use xlink:href="#L1_29" x="0" y="-350"/><use xlink:href="#L1_29" x="350" y="-350"/><use xlink:href="#L1_29" x="-350" y="0"/><use xlink:href="#L1_29" x="0" y="0"/><use xlink:href="#L1_29" x="350" y="0"/><use xlink:href="#L1_29" x="-350" y="350"/><use xlink:href="#L1_29" x="0" y="350"/><use xlink:href="#L1_29" x="350" y="350"/></pattern><rect x="0" y="0" width="100%" height="100%" fill="url(#pattern_L1_29)"/></g><g fi:class="KUsePattern" opacity="0.04"><pattern id="pattern_L1_30" width="350" height="350" patternUnits="userSpaceOnUse"><use xlink:href="#L1_30" x="-350" y="-350"/><use xlink:href="#L1_30" x="0" y="-350"/><use xlink:href="#L1_30" x="350" y="-350"/><use xlink:href="#L1_30" x="-350" y="0"/><use xlink:href="#L1_30" x="0" y="0"/><use xlink:href="#L1_30" x="350" y="0"/><use xlink:href="#L1_30" x="-350" y="350"/><use xlink:href="#L1_30" x="0" y="350"/><use xlink:href="#L1_30" x="350" y="350"/></pattern><rect x="0" y="0" width="100%" height="100%" fill="url(#pattern_L1_30)"/></g><g fi:class="KUsePattern" opacity="0.04"><pattern id="pattern_L1_31" width="350" height="350" patternUnits="userSpaceOnUse"><use xlink:href="#L1_31" x="-350" y="-350"/><use xlink:href="#L1_31" x="0" y="-350"/><use xlink:href="#L1_31" x="350" y="-350"/><use xlink:href="#L1_31" x="-350" y="0"/><use xlink:href="#L1_31" x="0" y="0"/><use xlink:href="#L1_31" x="350" y="0"/><use xlink:href="#L1_31" x="-350" y="350"/><use xlink:href="#L1_31" x="0" y="350"/><use xlink:href="#L1_31" x="350" y="350"/></pattern><rect x="0" y="0" width="100%" height="100%" fill="url(#pattern_L1_31)"/></g><g fi:class="KUsePattern" opacity="0.04"><pattern id="pattern_L1_32" width="350" height="350" patternUnits="userSpaceOnUse"><use xlink:href="#L1_32" x="-350" y="-350"/><use xlink:href="#L1_32" x="0" y="-350"/><use xlink:href="#L1_32" x="350" y="-350"/><use xlink:href="#L1_32" x="-350" y="0"/><use xlink:href="#L1_32" x="0" y="0"/><use xlink:href="#L1_32" x="350" y="0"/><use xlink:href="#L1_32" x="-350" y="350"/><use xlink:href="#L1_32" x="0" y="350"/><use xlink:href="#L1_32" x="350" y="350"/></pattern><rect x="0" y="0" width="100%" height="100%" fill="url(#pattern_L1_32)"/></g><g fi:class="KUsePattern" transform="matrix(1 0 0 1 20 20)" opacity="0.04"><pattern id="pattern_UNKNOWN" width="350" height="350" patternUnits="userSpaceOnUse"><use xlink:href="#UNKNOWN" x="-350" y="-350"/><use xlink:href="#UNKNOWN" x="0" y="-350"/><use xlink:href="#UNKNOWN" x="350" y="-350"/><use xlink:href="#UNKNOWN" x="-350" y="0"/><use xlink:href="#UNKNOWN" x="0" y="0"/><use xlink:href="#UNKNOWN" x="350" y="0"/><use xlink:href="#UNKNOWN" x="-350" y="350"/><use xlink:href="#UNKNOWN" x="0" y="350"/><use xlink:href="#UNKNOWN" x="350" y="350"/></pattern><rect x="0" y="0" width="100%" height="100%" fill="url(#pattern_UNKNOWN)"/></g><g fi:class="KUsePattern" opacity="0.04"><pattern id="pattern_L1_33" width="350" height="350" patternUnits="userSpaceOnUse"><use xlink:href="#L1_33" x="-350" y="-350"/><use xlink:href="#L1_33" x="0" y="-350"/><use xlink:href="#L1_33" x="350" y="-350"/><use xlink:href="#L1_33" x="-350" y="0"/><use xlink:href="#L1_33" x="0" y="0"/><use xlink:href="#L1_33" x="350" y="0"/><use xlink:href="#L1_33" x="-350" y="350"/><use xlink:href="#L1_33" x="0" y="350"/><use xlink:href="#L1_33" x="350" y="350"/></pattern><rect x="0" y="0" width="100%" height="100%" fill="url(#pattern_L1_33)"/></g><g fi:class="KUsePattern" transform="matrix(1 0 0 1 20 20)" opacity="0.04"><pattern id="pattern_UNKNOWN" width="350" height="350" patternUnits="userSpaceOnUse"><use xlink:href="#UNKNOWN" x="-350" y="-350"/><use xlink:href="#UNKNOWN" x="0" y="-350"/><use xlink:href="#UNKNOWN" x="350" y="-350"/><use xlink:href="#UNKNOWN" x="-350" y="0"/><use xlink:href="#UNKNOWN" x="0" y="0"/><use xlink:href="#UNKNOWN" x="350" y="0"/><use xlink:href="#UNKNOWN" x="-350" y="350"/><use xlink:href="#UNKNOWN" x="0" y="350"/><use xlink:href="#UNKNOWN" x="350" y="350"/></pattern><rect x="0" y="0" width="100%" height="100%" fill="url(#pattern_UNKNOWN)"/></g><g fi:class="KUsePattern" transform="matrix(1 0 0 1 20 20)" opacity="0.04"><pattern id="pattern_UNKNOWN" width="350" height="350" patternUnits="userSpaceOnUse"><use xlink:href="#UNKNOWN" x="-350" y="-350"/><use xlink:href="#UNKNOWN" x="0" y="-350"/><use xlink:href="#UNKNOWN" x="350" y="-350"/><use xlink:href="#UNKNOWN" x="-350" y="0"/><use xlink:href="#UNKNOWN" x="0" y="0"/><use xlink:href="#UNKNOWN" x="350" y="0"/><use xlink:href="#UNKNOWN" x="-350" y="350"/><use xlink:href="#UNKNOWN" x="0" y="350"/><use xlink:href="#UNKNOWN" x="350" y="350"/></pattern><rect x="0" y="0" width="100%" height="100%" fill="url(#pattern_UNKNOWN)"/></g><g fi:class="KUsePattern" transform="matrix(1 0 0 1 20 20)" opacity="0.04"><pattern id="pattern_UNKNOWN" width="350" height="350" patternUnits="userSpaceOnUse"><use xlink:href="#UNKNOWN" x="-350" y="-350"/><use xlink:href="#UNKNOWN" x="0" y="-350"/><use xlink:href="#UNKNOWN" x="350" y="-350"/><use xlink:href="#UNKNOWN" x="-350" y="0"/><use xlink:href="#UNKNOWN" x="0" y="0"/><use xlink:href="#UNKNOWN" x="350" y="0"/><use xlink:href="#UNKNOWN" x="-350" y="350"/><use xlink:href="#UNKNOWN" x="0" y="350"/><use xlink:href="#UNKNOWN" x="350" y="350"/></pattern><rect x="0" y="0" width="100%" height="100%" fill="url(#pattern_UNKNOWN)"/></g><g fi:class="KUsePattern" transform="matrix(1 0 0 1 20 20)" opacity="0.04"><pattern id="pattern_UNKNOWN" width="350" height="350" patternUnits="userSpaceOnUse"><use xlink:href="#UNKNOWN" x="-350" y="-350"/><use xlink:href="#UNKNOWN" x="0" y="-350"/><use xlink:href="#UNKNOWN" x="350" y="-350"/><use xlink:href="#UNKNOWN" x="-350" y="0"/><use xlink:href="#UNKNOWN" x="0" y="0"/><use xlink:href="#UNKNOWN" x="350" y="0"/><use xlink:href="#UNKNOWN" x="-350" y="350"/><use xlink:href="#UNKNOWN" x="0" y="350"/><use xlink:href="#UNKNOWN" x="350" y="350"/></pattern><rect x="0" y="0" width="100%" height="100%" fill="url(#pattern_UNKNOWN)"/></g></svg>